<svg xmlns="http://www.w3.org/2000/svg" viewBox="0 0 512 512">
  <rect width="512" height="512" fill="#000"/>
  <g transform="translate(256,256)">
    <path d="M0,-180 C60,-120 100,-40 100,80 C60,120 30,160 0,200 C-30,160 -60,120 -100,80 C-100,-40 -60,-120 0,-180Z" fill="#ffcf17"/>
    <path d="M0,-120 C35,-75 55,-20 55,60 C35,85 18,110 0,140 C-18,110 -35,85 -55,60 C-55,-20 -35,-75 0,-120Z" fill="#000"/>
    <polygon points="0,-60 8,-30 40,-30 14,-10 24,20 0,4 -24,20 -14,-10 -40,-30 -8,-30" fill="#ffcf17"/>
  </g>
</svg>